<svg xmlns="http://www.w3.org/2000/svg" width="39.687" height="19.719" viewBox="0 0 39.687 19.719">
  <metadata><?xpacket begin="﻿" id="W5M0MpCehiHzreSzNTczkc9d"?>
<x:xmpmeta xmlns:x="adobe:ns:meta/" x:xmptk="Adobe XMP Core 5.6-c142 79.160924, 2017/07/13-01:06:39        ">
   <rdf:RDF xmlns:rdf="http://www.w3.org/1999/02/22-rdf-syntax-ns#">
      <rdf:Description rdf:about=""/>
   </rdf:RDF>
</x:xmpmeta>
                                                                                                    
                                                                                                    
                                                                                                    
                                                                                                    
                                                                                                    
                                                                                                    
                                                                                                    
                                                                                                    
                                                                                                    
                                                                                                    
                                                                                                    
                                                                                                    
                                                                                                    
                                                                                                    
                                                                                                    
                                                                                                    
                                                                                                    
                                                                                                    
                                                                                                    
                                                                                                    
                           
<?xpacket end="w"?></metadata>
<defs>
    <style>
      .cls-1 {
        fill: #e7526b;
        fill-rule: evenodd;
      }
    </style>
  </defs>
  <path id="pex" class="cls-1" d="M216.211,42.242l-0.609-.281L211,42.571l-0.223.926,1.372,0.586-2.344,17.6h3.726l0.832-5.965a6.54,6.54,0,0,0,1.184.105,7.265,7.265,0,0,0,5.742-2.555,8.444,8.444,0,0,0,1.594-2.783,9.4,9.4,0,0,0,.562-3.129,9.775,9.775,0,0,0-.257-2.478,3.614,3.614,0,0,0-3.832-2.918,4.534,4.534,0,0,0-3.258,1.266Zm-0.363,2.906a2.3,2.3,0,0,1,1.757-1.137,1.337,1.337,0,0,1,.844.246,3.357,3.357,0,0,1,.938,2.789,12.938,12.938,0,0,1-.8,4.91,4.409,4.409,0,0,1-1.084,1.623,2.257,2.257,0,0,1-1.57.615,4,4,0,0,1-1.33-.164Zm13.8,7.758a4.65,4.65,0,0,1-.586-2.649,10.6,10.6,0,0,0,3.211-.562,8.357,8.357,0,0,0,1.565-.7,5.8,5.8,0,0,0,1.306-1.014,4.242,4.242,0,0,0,.868-1.324,3.987,3.987,0,0,0,.3-1.535,3.514,3.514,0,0,0-.257-1.395q-0.786-1.769-3.6-1.769a6.961,6.961,0,0,0-5.414,2.426,8.749,8.749,0,0,0-2.192,6.094v0.07a6.291,6.291,0,0,0,.5,2.555,4.853,4.853,0,0,0,.657,1.084,3.885,3.885,0,0,0,.972.861,4.854,4.854,0,0,0,1.319.568,6.745,6.745,0,0,0,1.775.2,6.582,6.582,0,0,0,1.945-.281,6.059,6.059,0,0,0,3.469-2.437L234.75,51.9a4.254,4.254,0,0,1-3.492,1.828A1.869,1.869,0,0,1,229.652,52.906Zm2.907-7.7a3.352,3.352,0,0,1-1.2,2.66,3.871,3.871,0,0,1-2.3.984q0.34-5.274,2.532-5.274Q232.558,43.578,232.559,45.207Zm13.558,6.879-1.863-3.375,5.238-6.656h-3.574l-2.6,4.09-1-2.953q-0.386-1.231-2.191-1.23a5.46,5.46,0,0,0-1.477.176,4.06,4.06,0,0,0-2.2,1.16l0.457,0.984a1.816,1.816,0,0,1,.938-0.223,0.97,0.97,0,0,1,.715.633l0.2,0.34,1.933,3.68-5.425,6.879h3.691l2.73-4.371,1.161,3.375a1.958,1.958,0,0,0,2.086,1.23,5.219,5.219,0,0,0,1.628-.234,4.348,4.348,0,0,0,2.415-1.559l-0.528-.984a1.97,1.97,0,0,1-.961.445,0.959,0.959,0,0,1-.638-0.275,3.917,3.917,0,0,1-.733-1.131h0Z" transform="translate(-209.813 -41.969)"/>
</svg>
