<svg xmlns="http://www.w3.org/2000/svg" width="131.719" height="10.594" viewBox="0 0 131.719 10.594">
  <metadata><?xpacket begin="﻿" id="W5M0MpCehiHzreSzNTczkc9d"?>
<x:xmpmeta xmlns:x="adobe:ns:meta/" x:xmptk="Adobe XMP Core 5.6-c142 79.160924, 2017/07/13-01:06:39        ">
   <rdf:RDF xmlns:rdf="http://www.w3.org/1999/02/22-rdf-syntax-ns#">
      <rdf:Description rdf:about=""/>
   </rdf:RDF>
</x:xmpmeta>
                                                                                                    
                                                                                                    
                                                                                                    
                                                                                                    
                                                                                                    
                                                                                                    
                                                                                                    
                                                                                                    
                                                                                                    
                                                                                                    
                                                                                                    
                                                                                                    
                                                                                                    
                                                                                                    
                                                                                                    
                                                                                                    
                                                                                                    
                                                                                                    
                                                                                                    
                                                                                                    
                           
<?xpacket end="w"?></metadata>
<defs>
    <style>
      .cls-1 {
        fill: #fff;
        fill-rule: evenodd;
      }
    </style>
  </defs>
  <path id="Photoshop_Website_template" data-name="Photoshop Website template" class="cls-1" d="M263.92,48.728a2.766,2.766,0,0,0,.879-2.134V46.511q-0.03-1.9-2.232-1.9l-1.391.083H259.94l-0.058.493,0.649,0.112-0.786,6.3-0.723.146-0.043.42h2.651l0.039-.425-0.957-.142,0.249-2.109c0.169,0.013.324,0.02,0.464,0.02H261.8a3,3,0,0,0,2.119-.776h0ZM261.5,45.29a5.584,5.584,0,0,1,1.025-.1,1.055,1.055,0,0,1,1.206.791,3.557,3.557,0,0,1,.054.7,3.939,3.939,0,0,1-.112.911q-0.391,1.645-2.637,1.265Zm8.669,6.646A1.117,1.117,0,0,0,270.5,51.6l-0.151-.254a1.054,1.054,0,0,1-.522.273,0.162,0.162,0,0,1-.105-0.161,4.188,4.188,0,0,1,.1-0.991l0.127-.776,0.141-.752a5.192,5.192,0,0,0,.108-0.986,1.771,1.771,0,0,0-.3-1.147,0.788,0.788,0,0,0-.344-0.252,1.353,1.353,0,0,0-.474-0.076,1.728,1.728,0,0,0-.549.093,3.076,3.076,0,0,0-1.446,1.138l0.464-3.477-0.254-.132-1.3.2-0.083.405,0.576,0.21-0.943,7.236h0.948l0.488-3.662a3.7,3.7,0,0,1,.835-0.888,2.142,2.142,0,0,1,.439-0.261,1.128,1.128,0,0,1,.452-0.095,0.486,0.486,0,0,1,.349.112,0.527,0.527,0,0,1,.122.23,1.946,1.946,0,0,1,.044.489,6.143,6.143,0,0,1-.1.932q-0.041.264-.088,0.515c-0.033.167-.061,0.321-0.086,0.461s-0.067.376-.127,0.708a7.875,7.875,0,0,0-.115.918,0.532,0.532,0,0,0,.6.64,1.569,1.569,0,0,0,.859-0.322h0Zm3.277,0.322a2.278,2.278,0,0,0,.8-0.137,2.78,2.78,0,0,0,1.24-.967,3.893,3.893,0,0,0,.757-2.378,2.548,2.548,0,0,0-.513-1.7,1.634,1.634,0,0,0-.605-0.439,2.011,2.011,0,0,0-.794-0.151,2.207,2.207,0,0,0-.8.142,2.673,2.673,0,0,0-1.235.962,3.882,3.882,0,0,0-.757,2.344,2.1,2.1,0,0,0,1.113,2.178A2.011,2.011,0,0,0,273.444,52.258Zm-0.9-2.324a4.591,4.591,0,0,1,.361-1.86,2.378,2.378,0,0,1,.31-0.515,1.426,1.426,0,0,1,.405-0.352,1,1,0,0,1,.5-0.129,0.947,0.947,0,0,1,.473.112,1.719,1.719,0,0,1,.625,1.616,4.591,4.591,0,0,1-.361,1.86,2.369,2.369,0,0,1-.31.515,1.422,1.422,0,0,1-.405.352,0.993,0.993,0,0,1-.5.129,0.918,0.918,0,0,1-.473-0.117,1.707,1.707,0,0,1-.625-1.611h0Zm6.306,2.256a2.221,2.221,0,0,0,1.1-.64l-0.087-.381a2.814,2.814,0,0,1-.45.263,2.031,2.031,0,0,1-.263.105,1.031,1.031,0,0,1-.306.041,0.31,0.31,0,0,1-.251-0.093,0.279,0.279,0,0,1-.061-0.136,1.7,1.7,0,0,1-.017-0.3,6.9,6.9,0,0,1,.083-0.8l0.4-3.057h1.265l0.1-.679h-1.279l0.166-1.274H278.79a5.058,5.058,0,0,1-.649,1.3l-0.6.229-0.1.425h0.585l-0.444,3.535a5.642,5.642,0,0,0-.058.6v0.054a0.781,0.781,0,0,0,.893.874,1.524,1.524,0,0,0,.435-0.068h0Zm3.96,0.068a2.278,2.278,0,0,0,.8-0.137,2.78,2.78,0,0,0,1.24-.967,3.893,3.893,0,0,0,.757-2.378,2.548,2.548,0,0,0-.513-1.7,1.634,1.634,0,0,0-.605-0.439,2.011,2.011,0,0,0-.794-0.151,2.207,2.207,0,0,0-.8.142,2.673,2.673,0,0,0-1.235.962,3.882,3.882,0,0,0-.757,2.344,2.1,2.1,0,0,0,1.113,2.178A2.011,2.011,0,0,0,282.814,52.258Zm-0.9-2.324a4.591,4.591,0,0,1,.361-1.86,2.378,2.378,0,0,1,.31-0.515,1.426,1.426,0,0,1,.405-0.352,1,1,0,0,1,.5-0.129,0.947,0.947,0,0,1,.473.112,1.719,1.719,0,0,1,.625,1.616,4.591,4.591,0,0,1-.361,1.86,2.369,2.369,0,0,1-.31.515,1.422,1.422,0,0,1-.405.352,1,1,0,0,1-.5.129,0.918,0.918,0,0,1-.473-0.117,1.707,1.707,0,0,1-.625-1.611h0Zm4.45,2.036a0.71,0.71,0,0,0,.215.108,3.6,3.6,0,0,0,1.221.181,2.21,2.21,0,0,0,1.347-.4,1.462,1.462,0,0,0,.428-0.486,1.571,1.571,0,0,0,.158-0.752,1.626,1.626,0,0,0-.4-0.974,4.231,4.231,0,0,0-.7-0.64,1.572,1.572,0,0,1-.777-1.128,0.689,0.689,0,0,1,.327-0.635,0.832,0.832,0,0,1,.279-0.107,1.8,1.8,0,0,1,.344-0.03,1.6,1.6,0,0,1,.388.049,1.2,1.2,0,0,1,.684.317l0.185-.815a2.7,2.7,0,0,0-.366-0.1,3.933,3.933,0,0,0-.884-0.076,2.063,2.063,0,0,0-1.313.425,1.548,1.548,0,0,0-.413.5,1.578,1.578,0,0,0-.154.735,1.617,1.617,0,0,0,.381.95,2.8,2.8,0,0,0,.337.369,4.02,4.02,0,0,0,.32.264q0.144,0.105.3,0.232a1.228,1.228,0,0,1,.542.942,0.6,0.6,0,0,1-.327.591,0.943,0.943,0,0,1-.317.093,3.152,3.152,0,0,1-.359.019,2.488,2.488,0,0,1-1.277-.366Zm9.343-.034a1.117,1.117,0,0,0,.337-0.332L295.9,51.35a1.056,1.056,0,0,1-.523.273,0.165,0.165,0,0,1-.105-0.161,4.277,4.277,0,0,1,.1-0.991l0.127-.776,0.141-.752a5.192,5.192,0,0,0,.108-0.986,1.771,1.771,0,0,0-.3-1.147,0.794,0.794,0,0,0-.344-0.252,1.353,1.353,0,0,0-.474-0.076,1.728,1.728,0,0,0-.549.093,3.076,3.076,0,0,0-1.446,1.138l0.464-3.477-0.254-.132-1.3.2-0.083.405,0.576,0.21-0.943,7.236h0.948l0.488-3.662a3.7,3.7,0,0,1,.835-0.888,2.142,2.142,0,0,1,.439-0.261,1.128,1.128,0,0,1,.452-0.095,0.486,0.486,0,0,1,.349.112,0.527,0.527,0,0,1,.122.23,1.946,1.946,0,0,1,.044.489,6.04,6.04,0,0,1-.1.932q-0.039.264-.087,0.515c-0.033.167-.061,0.321-0.086,0.461s-0.067.376-.127,0.708a7.875,7.875,0,0,0-.115.918,0.532,0.532,0,0,0,.6.64,1.569,1.569,0,0,0,.859-0.322h0Zm3.277,0.322a2.278,2.278,0,0,0,.8-0.137,2.78,2.78,0,0,0,1.24-.967,3.893,3.893,0,0,0,.757-2.378,2.548,2.548,0,0,0-.513-1.7,1.634,1.634,0,0,0-.6-0.439,2.011,2.011,0,0,0-.794-0.151,2.207,2.207,0,0,0-.8.142,2.673,2.673,0,0,0-1.235.962,3.882,3.882,0,0,0-.757,2.344,2.1,2.1,0,0,0,1.113,2.178A2.011,2.011,0,0,0,298.988,52.258Zm-0.9-2.324a4.591,4.591,0,0,1,.361-1.86,2.378,2.378,0,0,1,.31-0.515,1.426,1.426,0,0,1,.405-0.352,1,1,0,0,1,.5-0.129,0.947,0.947,0,0,1,.473.112,1.719,1.719,0,0,1,.625,1.616,4.591,4.591,0,0,1-.361,1.86,2.369,2.369,0,0,1-.31.515,1.422,1.422,0,0,1-.405.352,1,1,0,0,1-.5.129,0.918,0.918,0,0,1-.473-0.117,1.707,1.707,0,0,1-.625-1.611h0Zm8.659,1.055a4.043,4.043,0,0,0,.821-2.392,2.538,2.538,0,0,0-.406-1.514,1.454,1.454,0,0,0-1.255-.6,1.789,1.789,0,0,0-1.416.718l0.088-.6-0.229-.117-1.28.254-0.087.386,0.532,0.249L302.528,54.7h0.927l0.347-2.52a3.613,3.613,0,0,0,.757.078,2.24,2.24,0,0,0,.815-0.166,3.027,3.027,0,0,0,1.377-1.1h0Zm-2.368-2.974a2.368,2.368,0,0,1,.259-0.293,1.592,1.592,0,0,1,1.108-.542,0.67,0.67,0,0,1,.6.383,2.158,2.158,0,0,1,.22,1.065,4.467,4.467,0,0,1-.21,1.345,3.864,3.864,0,0,1-.262.638,2.506,2.506,0,0,1-.376.542,1.71,1.71,0,0,1-.5.376,1.5,1.5,0,0,1-.676.139,1.12,1.12,0,0,1-.652-0.176Zm7.89,4.194h0.982l1.89-5.029,0.566,5.029H316.7l2.915-6.919,0.586-.107,0.073-.493h-2.06l-0.054.493L318.8,45.3l-1.987,4.922-0.362,1.113-0.088-1.3-0.512-4.751,0.732-.1,0.1-.493h-2.324l-0.054.493,0.576,0.093,0.068,0.591-1.684,4.5-0.274.967-0.175-1.3-0.577-4.761L313,45.183l0.054-.493h-2.276l-0.058.493,0.6,0.107Zm8.9-.923a1.131,1.131,0,0,1-.2-0.305,1.968,1.968,0,0,1-.122-0.359,1.686,1.686,0,0,1-.049-0.308c0-.081,0-0.151,0-0.21s0-.122.01-0.191a4.3,4.3,0,0,0,1.255-.254,5.212,5.212,0,0,0,.718-0.3,3.077,3.077,0,0,0,.639-0.423,2.08,2.08,0,0,0,.459-0.554,1.252,1.252,0,0,0,.176-0.628,1.48,1.48,0,0,0-.088-0.542,1.231,1.231,0,0,0-1.3-.737,2.344,2.344,0,0,0-1.455.518,3.1,3.1,0,0,0-.573.581,3.965,3.965,0,0,0-.442.735,4.347,4.347,0,0,0-.291.842,3.715,3.715,0,0,0-.112.691c0,0.164-.007.316-0.007,0.456a2.331,2.331,0,0,0,.1.571,1.813,1.813,0,0,0,.967,1.2,2.122,2.122,0,0,0,.95.185,2.378,2.378,0,0,0,1.189-.352,2.2,2.2,0,0,0,.752-0.635l-0.225-.405a2.4,2.4,0,0,1-1.66.713,0.9,0.9,0,0,1-.684-0.293h0Zm-0.107-2.876a3.822,3.822,0,0,1,.232-0.5,2.383,2.383,0,0,1,.3-0.434,1.417,1.417,0,0,1,.379-0.305,0.965,0.965,0,0,1,.471-0.115,0.582,0.582,0,0,1,.432.173,0.669,0.669,0,0,1,.171.491,1.107,1.107,0,0,1-.112.527,1.719,1.719,0,0,1-.7.694,3.061,3.061,0,0,1-1.407.44,4.51,4.51,0,0,1,.235-0.967h0Zm8.083,2.578a4.043,4.043,0,0,0,.821-2.392,2.538,2.538,0,0,0-.406-1.514,1.454,1.454,0,0,0-1.164-.6,1.855,1.855,0,0,0-.55.068,2.083,2.083,0,0,0-1.025.737l0.41-3.052-0.249-.132-1.172.19-0.1.41,0.464,0.21-0.967,7.344,0.478-.22a3.339,3.339,0,0,0,1.133.22,2.754,2.754,0,0,0,2.329-1.27h0Zm-2.436-2.876A2.351,2.351,0,0,1,327.3,47.5a1.437,1.437,0,0,1,.844-0.317,0.67,0.67,0,0,1,.6.383,2.158,2.158,0,0,1,.22,1.065,4.436,4.436,0,0,1-.21,1.345,3.864,3.864,0,0,1-.262.638,2.471,2.471,0,0,1-.376.542,1.7,1.7,0,0,1-.5.376,1.539,1.539,0,0,1-.691.139,1.053,1.053,0,0,1-.672-0.2ZM330.7,51.97a0.723,0.723,0,0,0,.215.108,3.6,3.6,0,0,0,1.221.181,2.215,2.215,0,0,0,1.348-.4,1.459,1.459,0,0,0,.427-0.486,1.56,1.56,0,0,0,.158-0.752,1.619,1.619,0,0,0-.395-0.974,4.231,4.231,0,0,0-.7-0.64,1.572,1.572,0,0,1-.777-1.128,0.688,0.688,0,0,1,.328-0.635,0.819,0.819,0,0,1,.278-0.107,1.8,1.8,0,0,1,.344-0.03,1.593,1.593,0,0,1,.388.049,1.2,1.2,0,0,1,.684.317l0.185-.815a2.7,2.7,0,0,0-.366-0.1,3.933,3.933,0,0,0-.884-0.076,2.063,2.063,0,0,0-1.313.425,1.548,1.548,0,0,0-.413.5,1.578,1.578,0,0,0-.154.735,1.617,1.617,0,0,0,.381.95,2.8,2.8,0,0,0,.337.369c0.118,0.106.224,0.194,0.32,0.264s0.2,0.147.3,0.232a1.228,1.228,0,0,1,.542.942,0.6,0.6,0,0,1-.327.591,0.937,0.937,0,0,1-.317.093,3.152,3.152,0,0,1-.359.019,2.321,2.321,0,0,1-.388-0.034,2.291,2.291,0,0,1-.889-0.332Zm6.756-6.8a0.741,0.741,0,0,0,.229-0.532,0.5,0.5,0,0,0-.342-0.493,0.848,0.848,0,0,0-.3-0.044,0.638,0.638,0,0,0-.415.21,0.676,0.676,0,0,0-.24.513,0.519,0.519,0,0,0,.337.513,0.563,0.563,0,0,0,.235.049,0.7,0.7,0,0,0,.5-0.215h0Zm-0.8,7a1.728,1.728,0,0,0,.776-0.62l-0.156-.259a0.955,0.955,0,0,1-.523.327c-0.081,0-.122-0.07-0.122-0.21a1.024,1.024,0,0,1,.015-0.161l0.679-4.649-0.239-.117-1.475.249-0.088.4,0.723,0.249-0.454,2.988a10.649,10.649,0,0,0-.162,1.338,0.515,0.515,0,0,0,.606.557,1.036,1.036,0,0,0,.42-0.088h0Zm3.474,0.02a2.221,2.221,0,0,0,1.1-.64l-0.087-.381a2.77,2.77,0,0,1-.45.263,1.976,1.976,0,0,1-.263.105,1.028,1.028,0,0,1-.305.041,0.311,0.311,0,0,1-.252-0.093,0.279,0.279,0,0,1-.061-0.136,1.806,1.806,0,0,1-.017-0.3,7.144,7.144,0,0,1,.083-0.8l0.405-3.057h1.265l0.1-.679h-1.28l0.166-1.274h-0.464a5.058,5.058,0,0,1-.649,1.3l-0.6.229-0.1.425h0.586l-0.445,3.535a5.642,5.642,0,0,0-.058.6v0.054a0.781,0.781,0,0,0,.893.874,1.524,1.524,0,0,0,.435-0.068h0Zm3.435-.9a1.108,1.108,0,0,1-.2-0.305,1.9,1.9,0,0,1-.122-0.359,1.6,1.6,0,0,1-.049-0.308c0-.081-0.005-0.151-0.005-0.21a1.867,1.867,0,0,1,.01-0.191,4.3,4.3,0,0,0,1.254-.254,5.161,5.161,0,0,0,.718-0.3,3.084,3.084,0,0,0,.64-0.423,2.08,2.08,0,0,0,.459-0.554,1.262,1.262,0,0,0,.176-0.628,1.5,1.5,0,0,0-.088-0.542,1.231,1.231,0,0,0-1.3-.737,2.34,2.34,0,0,0-1.455.518,3.077,3.077,0,0,0-.574.581,4.02,4.02,0,0,0-.442.735,4.345,4.345,0,0,0-.29.842,3.734,3.734,0,0,0-.113.691c0,0.164-.007.316-0.007,0.456a2.342,2.342,0,0,0,.1.571,1.81,1.81,0,0,0,.967,1.2,2.117,2.117,0,0,0,.949.185,2.375,2.375,0,0,0,1.189-.352,2.188,2.188,0,0,0,.752-0.635l-0.224-.405a2.4,2.4,0,0,1-1.661.713,0.9,0.9,0,0,1-.683-0.293h0Zm-0.108-2.876a3.955,3.955,0,0,1,.232-0.5,2.437,2.437,0,0,1,.3-0.434,1.4,1.4,0,0,1,.378-0.305,0.966,0.966,0,0,1,.472-0.115,0.582,0.582,0,0,1,.432.173,0.669,0.669,0,0,1,.171.491,1.107,1.107,0,0,1-.113.527,1.713,1.713,0,0,1-.7.694,3.057,3.057,0,0,1-1.406.44,4.448,4.448,0,0,1,.234-0.967h0Zm8.062,3.779a2.221,2.221,0,0,0,1.1-.64l-0.088-.381a2.756,2.756,0,0,1-.449.263,2.031,2.031,0,0,1-.263.105,1.031,1.031,0,0,1-.306.041,0.31,0.31,0,0,1-.251-0.093,0.279,0.279,0,0,1-.061-0.136,1.7,1.7,0,0,1-.017-0.3,6.9,6.9,0,0,1,.083-0.8l0.405-3.057h1.265l0.1-.679h-1.279l0.166-1.274h-0.464a5.058,5.058,0,0,1-.649,1.3l-0.6.229-0.1.425H350.7l-0.445,3.535a5.642,5.642,0,0,0-.058.6v0.054a0.781,0.781,0,0,0,.893.874,1.524,1.524,0,0,0,.435-0.068h0Zm3.435-.9a1.111,1.111,0,0,1-.2-0.305,2.047,2.047,0,0,1-.122-0.359,1.672,1.672,0,0,1-.048-0.308c0-.081,0-0.151,0-0.21s0-.122.009-0.191a4.3,4.3,0,0,0,1.255-.254,5.212,5.212,0,0,0,.718-0.3,3.084,3.084,0,0,0,.64-0.423,2.1,2.1,0,0,0,.459-0.554,1.262,1.262,0,0,0,.176-0.628,1.5,1.5,0,0,0-.088-0.542,1.231,1.231,0,0,0-1.3-.737A2.34,2.34,0,0,0,355,47a3.077,3.077,0,0,0-.574.581,4.02,4.02,0,0,0-.442.735,4.345,4.345,0,0,0-.29.842,3.734,3.734,0,0,0-.113.691c0,0.164-.007.316-0.007,0.456a2.294,2.294,0,0,0,.1.571,1.812,1.812,0,0,0,.966,1.2,2.125,2.125,0,0,0,.95.185,2.375,2.375,0,0,0,1.189-.352,2.188,2.188,0,0,0,.752-0.635l-0.225-.405a2.4,2.4,0,0,1-1.66.713,0.9,0.9,0,0,1-.683-0.293h0Zm-0.108-2.876a3.955,3.955,0,0,1,.232-0.5,2.437,2.437,0,0,1,.3-0.434,1.4,1.4,0,0,1,.378-0.305,0.966,0.966,0,0,1,.472-0.115,0.582,0.582,0,0,1,.432.173,0.669,0.669,0,0,1,.171.491,1.107,1.107,0,0,1-.113.527,1.713,1.713,0,0,1-.7.694,3.057,3.057,0,0,1-1.406.44,4.448,4.448,0,0,1,.234-0.967h0Zm11.863,3.5a1.423,1.423,0,0,0,.342-0.356L366.9,51.3a0.993,0.993,0,0,1-.532.322,0.1,0.1,0,0,1-.088-0.1,2.262,2.262,0,0,1,0-.444q0.021-.346.32-2.168a5.773,5.773,0,0,0,.1-0.952,1.735,1.735,0,0,0-.312-1.128,0.875,0.875,0,0,0-.349-0.264,1.213,1.213,0,0,0-.459-0.083,1.56,1.56,0,0,0-.52.093,3.136,3.136,0,0,0-1.4,1.113,1.486,1.486,0,0,0-.327-0.938,0.8,0.8,0,0,0-.325-0.2,1.371,1.371,0,0,0-.439-0.064,1.591,1.591,0,0,0-.52.093,3.159,3.159,0,0,0-1.45,1.059L360.7,46.6l-0.234-.117-1.182.254-0.088.434,0.484,0.288-0.635,4.7h0.952l0.5-3.686a4.039,4.039,0,0,1,.835-0.869,2.1,2.1,0,0,1,.437-0.259,1.149,1.149,0,0,1,.457-0.093,0.447,0.447,0,0,1,.342.112,0.53,0.53,0,0,1,.1.23,3.326,3.326,0,0,1,.034.6,10.288,10.288,0,0,1-.127,1.338L362.5,50l-0.273,2.163h0.962l0.312-2.465q0.108-.7.151-1.236a3.923,3.923,0,0,1,.787-0.849,2.114,2.114,0,0,1,.412-0.254,0.987,0.987,0,0,1,.415-0.093,0.405,0.405,0,0,1,.315.112,0.533,0.533,0,0,1,.11.225,2.263,2.263,0,0,1,.042.53,10.465,10.465,0,0,1-.162,1.384l-0.161,1a8.323,8.323,0,0,0-.117,1.172,0.509,0.509,0,0,0,.581.571,1.413,1.413,0,0,0,.84-0.352h0Zm5.373-.918a4.043,4.043,0,0,0,.821-2.392,2.531,2.531,0,0,0-.406-1.514,1.453,1.453,0,0,0-1.254-.6,1.789,1.789,0,0,0-1.416.718l0.087-.6-0.229-.117-1.279.254-0.088.386,0.532,0.249L367.861,54.7h0.928l0.346-2.52a3.62,3.62,0,0,0,.757.078,2.24,2.24,0,0,0,.815-0.166,3.027,3.027,0,0,0,1.377-1.1h0Zm-2.368-2.974a2.368,2.368,0,0,1,.259-0.293,1.594,1.594,0,0,1,1.108-.542,0.67,0.67,0,0,1,.6.383,2.158,2.158,0,0,1,.22,1.065,4.436,4.436,0,0,1-.21,1.345,3.864,3.864,0,0,1-.262.638,2.5,2.5,0,0,1-.375.542,1.7,1.7,0,0,1-.5.376,1.5,1.5,0,0,1-.676.139,1.12,1.12,0,0,1-.652-0.176Zm5.369,3.233,0.986-7.012-0.234-.132-1.28.2-0.1.405,0.6,0.21-0.9,6.3a2.35,2.35,0,0,0-.029.376,0.759,0.759,0,0,0,.134.508,0.605,0.605,0,0,0,.469.151,1.445,1.445,0,0,0,.808-0.357,1.191,1.191,0,0,0,.327-0.352l-0.151-.254a0.976,0.976,0,0,1-.528.322q-0.156,0-.1-0.371h0Zm4.9,0.351v0.069a0.536,0.536,0,0,0,.621.591,1.425,1.425,0,0,0,.791-0.3,0.955,0.955,0,0,0,.3-0.3l-0.151-.259a0.865,0.865,0,0,1-.383.225A0.181,0.181,0,0,1,381,51.533a0.44,0.44,0,0,1-.032-0.285l0.64-4.761-0.581.166a3.135,3.135,0,0,0-.992-0.171,2.433,2.433,0,0,0-.908.171,3.361,3.361,0,0,0-1.855,1.875,3.931,3.931,0,0,0-.376,1.621,2.567,2.567,0,0,0,.395,1.514,1.4,1.4,0,0,0,1.216.6A1.89,1.89,0,0,0,380,51.5Zm0.118-.893a2.566,2.566,0,0,1-.254.3,1.6,1.6,0,0,1-1.162.557,0.64,0.64,0,0,1-.581-0.41,1.7,1.7,0,0,1-.157-0.481,4.51,4.51,0,0,1-.053-0.791,3.721,3.721,0,0,1,.21-1.145,3.65,3.65,0,0,1,.271-0.627,2.372,2.372,0,0,1,.388-0.53,1.789,1.789,0,0,1,.51-0.366,1.531,1.531,0,0,1,.666-0.137,1.045,1.045,0,0,1,.611.161Zm4.274,1.484a2.224,2.224,0,0,0,1.1-.64l-0.088-.381a2.756,2.756,0,0,1-.449.263,1.988,1.988,0,0,1-.264.105,1.024,1.024,0,0,1-.3.041,0.31,0.31,0,0,1-.251-0.093,0.271,0.271,0,0,1-.061-0.136,1.7,1.7,0,0,1-.017-0.3,6.9,6.9,0,0,1,.083-0.8l0.405-3.057H385.8l0.1-.679h-1.279l0.166-1.274h-0.464a5.058,5.058,0,0,1-.649,1.3l-0.6.229-0.1.425h0.586l-0.444,3.535a5.739,5.739,0,0,0-.059.6v0.054a0.781,0.781,0,0,0,.894.874,1.518,1.518,0,0,0,.434-0.068h0Zm3.435-.9a1.131,1.131,0,0,1-.2-0.305,1.968,1.968,0,0,1-.122-0.359,1.778,1.778,0,0,1-.049-0.308c0-.081,0-0.151,0-0.21s0-.122.01-0.191a4.3,4.3,0,0,0,1.255-.254,5.212,5.212,0,0,0,.718-0.3,3.111,3.111,0,0,0,.64-0.423,2.119,2.119,0,0,0,.459-0.554,1.261,1.261,0,0,0,.175-0.628,1.48,1.48,0,0,0-.088-0.542,1.229,1.229,0,0,0-1.3-.737,2.345,2.345,0,0,0-1.456.518,3.1,3.1,0,0,0-.573.581,4.02,4.02,0,0,0-.442.735,4.347,4.347,0,0,0-.291.842,3.715,3.715,0,0,0-.112.691c0,0.164-.007.316-0.007,0.456a2.331,2.331,0,0,0,.1.571,1.816,1.816,0,0,0,.967,1.2,2.122,2.122,0,0,0,.95.185,2.375,2.375,0,0,0,1.189-.352,2.2,2.2,0,0,0,.752-0.635l-0.225-.405a2.4,2.4,0,0,1-1.66.713,0.9,0.9,0,0,1-.684-0.293h0Zm-0.107-2.876a3.822,3.822,0,0,1,.232-0.5,2.339,2.339,0,0,1,.3-0.434,1.4,1.4,0,0,1,.378-0.305,0.965,0.965,0,0,1,.471-0.115,0.582,0.582,0,0,1,.432.173,0.669,0.669,0,0,1,.171.491,1.107,1.107,0,0,1-.112.527,1.713,1.713,0,0,1-.7.694,3.057,3.057,0,0,1-1.406.44,4.448,4.448,0,0,1,.234-0.967h0Z" transform="translate(-258.969 -44.094)"/>
</svg>
